<?xml version="1.0" encoding="utf-8"?>
<!-- Generator: Adobe Illustrator 26.0.2, SVG Export Plug-In . SVG Version: 6.00 Build 0)  -->
<svg version="1.1" xmlns="http://www.w3.org/2000/svg" xmlns:xlink="http://www.w3.org/1999/xlink" x="0px" y="0px"
	 viewBox="0 0 272 72" style="enable-background:new 0 0 272 72;" xml:space="preserve">
<style type="text/css">
	.heart-fill{fill:url(#heart-gradient);}

</style>

	<g>
		<linearGradient id="heart-gradient" gradientUnits="userSpaceOnUse" x1="56.5" y1="11" x2="56.5" y2="61">
			<stop  offset="0" style="stop-color:#FD8181"/>
			<stop  offset="0.6145" style="stop-color:#B30101"/>
		</linearGradient>

		<path id="heart-1" opacity="1" class="heart-fill" d="M56.3,17.3c0.7-0.6,1.3-1.1,2-1.7c5-4.4,10.6-5.7,17-3.7c6.7,2.2,11.5,8.9,11.3,16c-0.1,3.7-1.5,7-3.4,10.1
			c-2.4,3.7-5.4,6.7-8.6,9.7c-5.3,5-11.2,9.3-17.5,13.1c-0.5,0.3-0.9,0.3-1.4,0c-5.3-3.1-10.2-6.7-14.8-10.7
			c-2.8-2.5-5.6-5.1-8.1-7.9c-2.5-2.9-4.6-6-5.8-9.7c-2.8-8.8,2.4-18.4,11.3-20.8c5.5-1.5,10.5-0.5,14.9,2.9c1,0.7,1.8,1.7,2.6,2.5
			c0.1,0.1,0.2,0.2,0.3,0.4C56.4,17.5,56.4,17.4,56.3,17.3z"/>

		<path id="heart-2" opacity="1" class="heart-fill" d="M135.8,17.3c0.7-0.6,1.3-1.1,2-1.7
			c5-4.4,10.6-5.7,17-3.7c6.7,2.2,11.5,8.9,11.3,16c-0.1,3.7-1.5,7-3.4,10.1c-2.4,3.7-5.4,6.7-8.6,9.7c-5.3,5-11.2,9.3-17.5,13.1
			c-0.5,0.3-0.9,0.3-1.4,0c-5.3-3.1-10.2-6.7-14.8-10.7c-2.8-2.5-5.6-5.1-8.1-7.9c-2.5-2.9-4.6-6-5.8-9.7
			c-2.8-8.8,2.4-18.4,11.3-20.8c5.5-1.5,10.5-0.5,14.9,2.9c1,0.7,1.8,1.7,2.6,2.5c0.1,0.1,0.2,0.2,0.3,0.4
			C135.9,17.5,135.9,17.4,135.8,17.3z"/>

		<path id="heart-3" opacity="1" class="heart-fill" d="M215.3,17.3c0.7-0.6,1.3-1.1,2-1.7
			c5-4.4,10.6-5.7,17-3.7c6.7,2.2,11.5,8.9,11.3,16c-0.1,3.7-1.5,7-3.4,10.1c-2.4,3.7-5.4,6.7-8.6,9.7c-5.3,5-11.2,9.3-17.5,13.1
			c-0.5,0.3-0.9,0.3-1.4,0c-5.3-3.1-10.2-6.7-14.8-10.7c-2.8-2.5-5.6-5.1-8.1-7.9c-2.5-2.9-4.6-6-5.8-9.7
			c-2.8-8.8,2.4-18.4,11.3-20.8c5.5-1.5,10.5-0.5,14.9,2.9c1,0.7,1.8,1.7,2.6,2.5c0.1,0.1,0.2,0.2,0.3,0.4
			C215.4,17.5,215.4,17.4,215.3,17.3z"/>
	</g>

</svg>
